{
  "source": "C:\\Users\\Peter\\Desktop\\stuff\\MIUN\\quantitative_research\\video_compression\\videos\\BVI-HD\\BVI-HD_CDVL_videos\\ORIG\\TreeGrassFamily_1920x1080_30fps.mp4",
  "output": "C:\\Users\\Peter\\Desktop\\stuff\\MIUN\\quantitative_research\\video_compression\\compressed_videos\\BVI-HD\\h264\\4\\TreeGrassFamily_1920x1080_30fps_h264.mp4",
  "codec": "h264",
  "ok": "Input #0, mov,mp4,m4a,3gp,3g2,mj2, from 'C:\\Users\\Peter\\Desktop\\stuff\\MIUN\\quantitative_research\\video_compression\\videos\\BVI-HD\\BVI-HD_CDVL_videos\\ORIG\\TreeGrassFamily_1920x1080_30fps.mp4':\n  Metadata:\n    major_brand     : isom\n    minor_version   : 512\n    compatible_brands: isomiso2avc1mp41\n    encoder         : Lavf54.28.101\n  Duration: 00:00:05.00, start: 0.000000, bitrate: 331787 kb/s\n  Stream #0:0[0x1](und): Video: h264 (High 4:4:4 Predictive) (avc1 / 0x31637661), yuv420p(progressive), 1920x1080, 331784 kb/s, 30 fps, 30 tbr, 30 tbn (default)\n    Metadata:\n      handler_name    : VideoHandler\n      vendor_id       : [0][0][0][0]\n[out#0/mp4 @ 000001db6b71f040] Codec AVOption b:a (set bitrate (in bits/s)) has not been used for any stream. The most likely reason is either wrong type (e.g. a video option with no video streams) or that it is a private option of some decoder which was not actually used for any stream.\nStream mapping:\n  Stream #0:0 -> #0:0 (h264 (native) -> h264 (libx264))\nPress [q] to stop, [?] for help\n[libx264 @ 000001db6b7d75c0] using cpu capabilities: MMX2 SSE2Fast SSSE3 SSE4.2 AVX FMA3 BMI2 AVX2\n[libx264 @ 000001db6b7d75c0] profile High, level 5.0, 4:2:0, 8-bit\n[libx264 @ 000001db6b7d75c0] 264 - core 165 r3222 b35605a - H.264/MPEG-4 AVC codec - Copyleft 2003-2025 - http://www.videolan.org/x264.html - options: cabac=1 ref=5 deblock=1:0:0 analyse=0x3:0x113 me=hex subme=8 psy=1 psy_rd=1.00:0.00 mixed_ref=1 me_range=16 chroma_me=1 trellis=2 8x8dct=1 cqm=0 deadzone=21,11 fast_pskip=1 chroma_qp_offset=-2 threads=18 lookahead_threads=3 sliced_threads=0 nr=0 decimate=1 interlaced=0 bluray_compat=0 constrained_intra=0 bframes=3 b_pyramid=2 b_adapt=1 b_bias=0 direct=3 weightb=1 open_gop=0 weightp=2 keyint=250 keyint_min=25 scenecut=40 intra_refresh=0 rc_lookahead=50 rc=cbr mbtree=1 bitrate=4000 ratetol=1.0 qcomp=0.60 qpmin=0 qpmax=69 qpstep=4 vbv_maxrate=4000 vbv_bufsize=4000 nal_hrd=none filler=0 ip_ratio=1.40 aq=1:1.00\nOutput #0, mp4, to 'C:\\Users\\Peter\\Desktop\\stuff\\MIUN\\quantitative_research\\video_compression\\compressed_videos\\BVI-HD\\h264\\4\\TreeGrassFamily_1920x1080_30fps_h264.mp4':\n  Metadata:\n    major_brand     : isom\n    minor_version   : 512\n    compatible_brands: isomiso2avc1mp41\n    encoder         : Lavf62.3.100\n  Stream #0:0(und): Video: h264 (avc1 / 0x31637661), yuv420p(tv, progressive), 1920x1080, q=2-31, 4000 kb/s, 30 fps, 15360 tbn (default)\n    Metadata:\n      encoder         : Lavc62.11.100 libx264\n      handler_name    : VideoHandler\n      vendor_id       : [0][0][0][0]\n    Side data:\n      cpb: bitrate max/min/avg: 4000000/0/4000000 buffer size: 4000000 vbv_delay: N/A\nframe=    0 fps=0.0 q=0.0 size=       0KiB time=N/A bitrate=N/A speed=N/A elapsed=0:00:01.28    \nframe=    0 fps=0.0 q=0.0 size=       0KiB time=N/A bitrate=N/A speed=N/A elapsed=0:00:01.84    \nframe=    0 fps=0.0 q=0.0 size=       0KiB time=N/A bitrate=N/A speed=N/A elapsed=0:00:02.49    \nframe=    2 fps=0.6 q=43.0 size=       0KiB time=N/A bitrate=N/A speed=N/A elapsed=0:00:03.11    \nframe=    6 fps=1.6 q=41.0 size=       0KiB time=00:00:00.13 bitrate=   2.9kbits/s speed=0.0361x elapsed=0:00:03.69    \nframe=   25 fps=5.9 q=38.0 size=     256KiB time=00:00:00.76 bitrate=2735.9kbits/s speed=0.18x elapsed=0:00:04.25    \nframe=   37 fps=7.5 q=38.0 size=     256KiB time=00:00:01.06 bitrate=1966.4kbits/s speed=0.216x elapsed=0:00:04.93    \nframe=   45 fps=8.1 q=38.0 size=     512KiB time=00:00:01.43 bitrate=2926.5kbits/s speed=0.259x elapsed=0:00:05.53    \nframe=   61 fps= 10 q=38.0 size=     768KiB time=00:00:01.96 bitrate=3199.2kbits/s speed=0.322x elapsed=0:00:06.11    \nframe=   73 fps= 11 q=38.0 size=     768KiB time=00:00:02.36 bitrate=2658.5kbits/s speed=0.355x elapsed=0:00:06.66    \nframe=   89 fps= 12 q=38.0 size=    1024KiB time=00:00:02.90 bitrate=2892.8kbits/s speed=0.403x elapsed=0:00:07.19    \nframe=   97 fps= 12 q=38.0 size=    1280KiB time=00:00:03.16 bitrate=3311.4kbits/s speed=0.407x elapsed=0:00:07.78    \nframe=  113 fps= 14 q=39.0 size=    1536KiB time=00:00:03.70 bitrate=3400.9kbits/s speed=0.443x elapsed=0:00:08.34    \nframe=  129 fps= 14 q=39.0 size=    1792KiB time=00:00:04.13 bitrate=3551.7kbits/s speed=0.463x elapsed=0:00:08.92    \nframe=  145 fps= 15 q=-1.0 size=    2048KiB time=00:00:04.63 bitrate=3621.1kbits/s speed=0.489x elapsed=0:00:09.47    \n[mp4 @ 000001db6a9f9a40] Starting second pass: moving the moov atom to the beginning of the file\n[out#0/mp4 @ 000001db6b71f040] video:2333KiB audio:0KiB subtitle:0KiB other streams:0KiB global headers:0KiB muxing overhead: 0.112635%\nframe=  150 fps= 16 q=-1.0 Lsize=    2336KiB time=00:00:04.93 bitrate=3878.6kbits/s speed=0.514x elapsed=0:00:09.59    \n[libx264 @ 000001db6b7d75c0] frame I:1     Avg QP:37.56  size: 77399\n[libx264 @ 000001db6b7d75c0] frame P:38    Avg QP:38.05  size: 34320\n[libx264 @ 000001db6b7d75c0] frame B:111   Avg QP:41.45  size:  9070\n[libx264 @ 000001db6b7d75c0] consecutive B-frames:  1.3%  0.0%  0.0% 98.7%\n[libx264 @ 000001db6b7d75c0] mb I  I16..4:  9.6% 83.8%  6.6%\n[libx264 @ 000001db6b7d75c0] mb P  I16..4:  0.1%  4.7%  0.1%  P16..4: 40.4% 15.7%  8.5%  0.0%  0.0%    skip:30.5%\n[libx264 @ 000001db6b7d75c0] mb B  I16..4:  0.0%  0.3%  0.0%  B16..8: 30.8%  4.4%  1.0%  direct: 2.8%  skip:60.8%  L0:39.5% L1:56.0% BI: 4.5%\n[libx264 @ 000001db6b7d75c0] 8x8 transform intra:92.2% inter:78.8%\n[libx264 @ 000001db6b7d75c0] direct mvs  spatial:91.0% temporal:9.0%\n[libx264 @ 000001db6b7d75c0] coded y,uvDC,uvAC intra: 73.8% 32.4% 2.1% inter: 13.3% 2.3% 0.0%\n[libx264 @ 000001db6b7d75c0] i16 v,h,dc,p: 34% 17% 13% 36%\n[libx264 @ 000001db6b7d75c0] i8 v,h,dc,ddl,ddr,vr,hd,vl,hu:  7%  2%  4% 19% 12% 12% 10% 24% 10%\n[libx264 @ 000001db6b7d75c0] i4 v,h,dc,ddl,ddr,vr,hd,vl,hu:  6%  2%  2% 17% 15% 14% 12% 17% 16%\n[libx264 @ 000001db6b7d75c0] i8c dc,h,v,p: 80% 10%  7%  3%\n[libx264 @ 000001db6b7d75c0] Weighted P-Frames: Y:0.0% UV:0.0%\n[libx264 @ 000001db6b7d75c0] ref P L0: 48.8%  8.5% 22.6%  8.2% 11.9%\n[libx264 @ 000001db6b7d75c0] ref B L0: 80.0% 12.9%  4.6%  2.5%\n[libx264 @ 000001db6b7d75c0] ref B L1: 96.3%  3.7%\n[libx264 @ 000001db6b7d75c0] kb/s:3821.38\n",
  "seconds": 10.268932104110718,
  "probe_out": {}
}